<svg width="22" height="19" viewBox="0 0 22 19" fill="none" xmlns="http://www.w3.org/2000/svg">
<path d="M18.8571 2.50292C18.3843 2.02645 17.8229 1.64848 17.2051 1.39061C16.5873 1.13273 15.925 1 15.2563 1C14.5875 1 13.9253 1.13273 13.3074 1.39061C12.6896 1.64848 12.1283 2.02645 11.6555 2.50292L10.6743 3.4913L9.69309 2.50292C8.7381 1.54094 7.44285 1.0005 6.09229 1.0005C4.74173 1.0005 3.44649 1.54094 2.4915 2.50292C1.53651 3.46491 1 4.76964 1 6.1301C1 7.49055 1.53651 8.79528 2.4915 9.75727L3.47269 10.7457L10.6743 18L17.8759 10.7457L18.8571 9.75727C19.3301 9.28102 19.7053 8.71557 19.9613 8.0932C20.2173 7.47084 20.3491 6.80377 20.3491 6.1301C20.3491 5.45642 20.2173 4.78935 19.9613 4.16699C19.7053 3.54463 19.3301 2.97917 18.8571 2.50292V2.50292Z" stroke="#43444D" stroke-width="1.5" stroke-linecap="round" stroke-linejoin="round"/>
</svg>
