<svg width="316" height="25" viewBox="0 0 316 25" fill="none" xmlns="http://www.w3.org/2000/svg">
<rect x="139.931" y="0.95166" width="36.1655" height="24.0483" rx="4" fill="white"/>
<path d="M155.404 17.0668H153.359L154.638 9.39783H156.683L155.404 17.0668Z" fill="#00579F"/>
<path d="M162.816 9.58541C162.412 9.43024 161.773 9.25891 160.982 9.25891C158.962 9.25891 157.54 10.3031 157.531 11.7961C157.515 12.8976 158.55 13.5094 159.324 13.8766C160.115 14.2519 160.384 14.4969 160.384 14.8314C160.376 15.3452 159.744 15.582 159.156 15.582C158.339 15.582 157.902 15.4599 157.237 15.1741L156.968 15.0515L156.682 16.7731C157.161 16.985 158.045 17.173 158.962 17.1812C161.108 17.1812 162.505 16.1531 162.521 14.5622C162.529 13.6892 161.983 13.0202 160.805 12.4736C160.09 12.1227 159.652 11.8861 159.652 11.5271C159.66 11.2007 160.022 10.8664 160.829 10.8664C161.494 10.85 161.983 11.0049 162.353 11.16L162.538 11.2414L162.816 9.58541Z" fill="#00579F"/>
<path d="M165.535 14.35C165.703 13.9094 166.351 12.2042 166.351 12.2042C166.343 12.2206 166.519 11.7555 166.62 11.47L166.763 12.1308C166.763 12.1308 167.15 13.9665 167.234 14.35C166.915 14.35 165.939 14.35 165.535 14.35ZM168.059 9.39783H166.477C165.989 9.39783 165.619 9.53641 165.408 10.0341L162.371 17.0667H164.516C164.516 17.0667 164.87 16.1202 164.946 15.9163C165.181 15.9163 167.268 15.9163 167.571 15.9163C167.63 16.1856 167.815 17.0667 167.815 17.0667H169.708L168.059 9.39783Z" fill="#00579F"/>
<path d="M151.651 9.39783L149.648 14.6274L149.429 13.5667C149.059 12.3429 147.898 11.0133 146.602 10.3522L148.436 17.0587H150.599L153.813 9.39783H151.651Z" fill="#00579F"/>
<path d="M147.788 9.39783H144.498L144.465 9.5528C147.031 10.1893 148.731 11.7235 149.429 13.5675L148.714 10.0426C148.596 9.55269 148.234 9.41399 147.788 9.39783Z" fill="#FAA61A"/>
<mask id="mask0_620_3517" style="mask-type:alpha" maskUnits="userSpaceOnUse" x="279" y="0" width="37" height="25">
<rect x="279.834" y="0.95166" width="36.1655" height="24.0483" fill="#016fd0"/>
</mask>
<g mask="url(#mask0_620_3517)">
<rect x="279.834" y="0.95166" width="36.1655" height="24.0483" rx="4" fill="white"/>
<path d="M286.869 19.3493V13.8319H292.893L293.54 14.649L294.207 13.8319H316.074V18.9688C316.074 18.9688 315.502 19.3437 314.841 19.3493H302.733L302.004 18.4795V19.3493H299.616V17.8646C299.616 17.8646 299.29 18.0718 298.585 18.0718H297.772V19.3493H294.156L293.511 18.5147L292.856 19.3493H286.869Z" fill="#016fd0"/>
<path d="M279.834 9.67364L281.193 6.60242H283.542L284.313 8.32279V6.60242H287.234L287.693 7.84585L288.138 6.60242H301.248V7.22753C301.248 7.22753 301.937 6.60242 303.069 6.60242L307.323 6.61683L308.081 8.31469V6.60242H310.525L311.197 7.5777V6.60242H313.664V12.1198H311.197L310.553 11.1413V12.1198H306.962L306.601 11.25H305.636L305.28 12.1198H302.845C301.871 12.1198 301.248 11.5074 301.248 11.5074V12.1198H297.576L296.847 11.25V12.1198H283.194L282.833 11.25H281.871L281.513 12.1198H279.834V9.67364Z" fill="#016fd0"/>
<path d="M281.673 7.28247L279.841 11.4142H281.034L281.372 10.5868H283.337L283.673 11.4142H284.893L283.062 7.28247H281.673ZM282.351 8.24404L282.95 9.6898H281.75L282.351 8.24404Z" fill="white"/>
<path d="M285.019 11.4132V7.28149L286.714 7.2876L287.7 9.95145L288.662 7.28149H290.344V11.4132H289.279V8.36878L288.15 11.4132H287.216L286.084 8.36878V11.4132H285.019Z" fill="white"/>
<path d="M291.073 11.4132V7.28149H294.549V8.2057H292.15V8.91244H294.493V9.78228H292.15V10.5162H294.549V11.4132H291.073Z" fill="white"/>
<path d="M295.165 7.28247V11.4142H296.23V9.94635H296.678L297.955 11.4142H299.257L297.855 9.89199C298.431 9.84492 299.024 9.36617 299.024 8.62291C299.024 7.75345 298.32 7.28247 297.535 7.28247H295.165ZM296.23 8.20667H297.447C297.739 8.20667 297.952 8.42823 297.952 8.64159C297.952 8.91609 297.676 9.07651 297.463 9.07651H296.23V8.20667Z" fill="white"/>
<path d="M300.548 11.4132H299.46V7.28149H300.548V11.4132Z" fill="white"/>
<path d="M303.126 11.4132H302.891C301.755 11.4132 301.066 10.5454 301.066 9.36435C301.066 8.15409 301.748 7.28149 303.182 7.28149H304.359V8.26006H303.139C302.557 8.26006 302.145 8.70073 302.145 9.37454C302.145 10.1747 302.616 10.5108 303.294 10.5108H303.574L303.126 11.4132Z" fill="white"/>
<path d="M305.444 7.28247L303.612 11.4142H304.805L305.143 10.5868H307.108L307.445 11.4142H308.664L306.833 7.28247H305.444ZM306.122 8.24404L306.721 9.6898H305.521L306.122 8.24404Z" fill="white"/>
<path d="M308.787 11.4132V7.28149H310.141L311.87 9.87742V7.28149H312.935V11.4132H311.625L309.852 8.74935V11.4132H308.787Z" fill="white"/>
<path d="M287.598 18.6432V14.5115H291.074V15.4357H288.674V16.1424H291.018V17.0123H288.674V17.7462H291.074V18.6432H287.598Z" fill="white"/>
<path d="M304.627 18.6432V14.5115H308.103V15.4357H305.703V16.1424H308.035V17.0123H305.703V17.7462H308.103V18.6432H304.627Z" fill="white"/>
<path d="M291.209 18.6432L292.901 16.6028L291.169 14.5115H292.51L293.542 15.8043L294.577 14.5115H295.867L294.157 16.5773L295.852 18.6432H294.511L293.509 17.3707L292.531 18.6432H291.209Z" fill="white"/>
<path d="M295.978 14.512V18.6437H297.071V17.3389H298.192C299.14 17.3389 299.86 16.8509 299.86 15.9017C299.86 15.1154 299.296 14.512 298.33 14.512H295.978ZM297.071 15.4464H298.251C298.558 15.4464 298.777 15.6285 298.777 15.9221C298.777 16.1978 298.559 16.3977 298.248 16.3977H297.071V15.4464Z" fill="white"/>
<path d="M300.323 14.5115V18.6432H301.388V17.1754H301.836L303.113 18.6432H304.415L303.013 17.121C303.588 17.0739 304.182 16.5952 304.182 15.8519C304.182 14.9825 303.478 14.5115 302.693 14.5115H300.323ZM301.388 15.4357H302.605C302.897 15.4357 303.11 15.6572 303.11 15.8706C303.11 16.1451 302.834 16.3055 302.621 16.3055H301.388V15.4357Z" fill="white"/>
<path d="M308.597 18.6432V17.7462H310.728C311.044 17.7462 311.18 17.5809 311.18 17.3996C311.18 17.2259 311.044 17.0503 310.728 17.0503H309.765C308.928 17.0503 308.461 16.5556 308.461 15.8128C308.461 15.1503 308.888 14.5115 310.133 14.5115H312.207L311.758 15.4411H309.964C309.622 15.4411 309.516 15.6156 309.516 15.7823C309.516 15.9535 309.646 16.1424 309.908 16.1424H310.917C311.851 16.1424 312.256 16.6559 312.256 17.3283C312.256 18.0511 311.804 18.6432 310.867 18.6432H308.597Z" fill="white"/>
<path d="M312.505 18.6432V17.7462H314.636C314.952 17.7462 315.088 17.5809 315.088 17.3996C315.088 17.2259 314.952 17.0503 314.636 17.0503H313.673C312.836 17.0503 312.37 16.5556 312.37 15.8128C312.37 15.1503 312.797 14.5115 314.041 14.5115H316.073L315.666 15.4411H313.873C313.53 15.4411 313.424 15.6156 313.424 15.7823C313.424 15.9535 313.555 16.1424 313.817 16.1424H314.826C315.759 16.1424 316.164 16.6559 316.164 17.3283C316.164 18.0511 315.713 18.6432 314.775 18.6432H312.505Z" fill="white"/>
</g>
<rect x="93.2964" y="0.95166" width="36.1655" height="24.0483" rx="4" fill="white"/>
<path fill-rule="evenodd" clip-rule="evenodd" d="M111.637 18.1431C110.406 19.1734 108.809 19.7954 107.064 19.7954C103.17 19.7954 100.013 16.6986 100.013 12.8785C100.013 9.05846 103.17 5.96167 107.064 5.96167C108.809 5.96167 110.406 6.58367 111.637 7.61402C112.869 6.58367 114.466 5.96167 116.211 5.96167C120.105 5.96167 123.262 9.05846 123.262 12.8785C123.262 16.6986 120.105 19.7954 116.211 19.7954C114.466 19.7954 112.869 19.1734 111.637 18.1431Z" fill="#ED0006"/>
<path fill-rule="evenodd" clip-rule="evenodd" d="M111.637 18.1431C113.154 16.8744 114.115 14.9866 114.115 12.8785C114.115 10.7705 113.154 8.8827 111.637 7.61402C112.869 6.58367 114.466 5.96167 116.211 5.96167C120.105 5.96167 123.262 9.05846 123.262 12.8785C123.262 16.6986 120.105 19.7954 116.211 19.7954C114.466 19.7954 112.869 19.1734 111.637 18.1431Z" fill="#F9A000"/>
<path fill-rule="evenodd" clip-rule="evenodd" d="M111.638 18.143C110.121 16.8743 109.16 14.9866 109.16 12.8785C109.16 10.7705 110.121 8.8827 111.638 7.61401C113.154 8.8827 114.115 10.7705 114.115 12.8785C114.115 14.9866 113.154 16.8743 111.638 18.143Z" fill="#FF5E00"/>
<rect x="233.2" y="0.95166" width="36.1655" height="24.0483" rx="4" fill="white"/>
<path d="M253.964 13.103C253.964 16.9231 250.807 20.0199 246.913 20.0199C243.019 20.0199 239.862 16.9231 239.862 13.103C239.862 9.28295 243.019 6.18616 246.913 6.18616C250.807 6.18616 253.964 9.28295 253.964 13.103Z" fill="#ED0006"/>
<path d="M263.111 13.103C263.111 16.9231 259.954 20.0199 256.06 20.0199C252.166 20.0199 249.009 16.9231 249.009 13.103C249.009 9.28295 252.166 6.18616 256.06 6.18616C259.954 6.18616 263.111 9.28295 263.111 13.103Z" fill="#0099DF"/>
<path fill-rule="evenodd" clip-rule="evenodd" d="M251.487 18.3675C249.971 17.0988 249.009 15.211 249.009 13.103C249.009 10.995 249.971 9.10718 251.487 7.8385C253.003 9.10718 253.964 10.995 253.964 13.103C253.964 15.211 253.003 17.0988 251.487 18.3675Z" fill="#6C6BBD"/>
<rect x="0.0273438" y="0.95166" width="36.1655" height="24.0483" rx="4" fill="white"/>
<path fill-rule="evenodd" clip-rule="evenodd" d="M9.45482 10.0336H7.68328C7.56205 10.0336 7.45894 10.119 7.44004 10.235L6.72354 14.6402C6.7093 14.7272 6.77872 14.8055 6.86964 14.8055H7.71539C7.83662 14.8055 7.93972 14.7201 7.95863 14.6038L8.15188 13.4157C8.17052 13.2993 8.27387 13.214 8.39485 13.214H8.95566C10.1226 13.214 10.7961 12.6664 10.9721 11.5813C11.0513 11.1065 10.9754 10.7335 10.7461 10.4722C10.4944 10.1854 10.0477 10.0336 9.45482 10.0336ZM9.6592 11.6425C9.56234 12.259 9.07664 12.259 8.60701 12.259H8.33967L8.52722 11.1077C8.53835 11.0382 8.60052 10.9869 8.67306 10.9869H8.79558C9.11549 10.9869 9.4173 10.9869 9.57325 11.1637C9.66616 11.2692 9.69469 11.4259 9.6592 11.6425ZM14.7504 11.6227H13.902C13.8298 11.6227 13.7673 11.674 13.7562 11.7436L13.7186 11.9737L13.6593 11.8903C13.4756 11.6318 13.0662 11.5454 12.6574 11.5454C11.7198 11.5454 10.9192 12.234 10.7632 13.1998C10.6822 13.6816 10.7974 14.1422 11.0792 14.4635C11.3378 14.7589 11.7077 14.882 12.1478 14.882C12.9031 14.882 13.3221 14.411 13.3221 14.411L13.2842 14.6396C13.2699 14.7271 13.3393 14.8054 13.4297 14.8054H14.1939C14.3155 14.8054 14.418 14.72 14.4372 14.6037L14.8957 11.788C14.9102 11.7014 14.841 11.6227 14.7504 11.6227ZM13.5678 13.2239C13.486 13.6939 13.1013 14.0094 12.6108 14.0094C12.3644 14.0094 12.1675 13.9328 12.0411 13.7876C11.9157 13.6434 11.868 13.4381 11.9079 13.2096C11.9844 12.7436 12.3756 12.4179 12.8587 12.4179C13.0995 12.4179 13.2954 12.4954 13.4243 12.6419C13.5536 12.7898 13.6049 12.9963 13.5678 13.2239ZM18.416 11.6226H19.2686C19.388 11.6226 19.4576 11.7525 19.3898 11.8475L16.5544 15.8163C16.5085 15.8806 16.4328 15.9188 16.352 15.9188H15.5006C15.3807 15.9188 15.3107 15.7879 15.3801 15.6927L16.263 14.4842L15.324 11.812C15.2915 11.7191 15.3622 11.6226 15.4641 11.6226H16.3018C16.4107 11.6226 16.5067 11.6919 16.5381 11.7929L17.0364 13.4069L18.2122 11.7274C18.2583 11.6618 18.3348 11.6226 18.416 11.6226Z" fill="#253B80"/>
<path fill-rule="evenodd" clip-rule="evenodd" d="M27.6595 14.6397L28.3866 10.154C28.3977 10.0843 28.4599 10.0331 28.5322 10.0328H29.3507C29.4411 10.0328 29.5105 10.1114 29.4962 10.1984L28.7793 14.6033C28.7606 14.7196 28.6575 14.805 28.536 14.805H27.8051C27.7147 14.805 27.6453 14.7267 27.6595 14.6397ZM22.0915 10.0331H20.3196C20.1987 10.0331 20.0956 10.1185 20.0766 10.2345L19.3601 14.6397C19.3459 14.7267 19.4153 14.805 19.5058 14.805H20.4149C20.4994 14.805 20.5717 14.7453 20.5849 14.6639L20.7882 13.4152C20.8069 13.2988 20.9102 13.2135 21.0312 13.2135H21.5917C22.7589 13.2135 23.4323 12.6659 23.6084 11.5808C23.6878 11.106 23.6115 10.733 23.3823 10.4717C23.1307 10.1849 22.6844 10.0331 22.0915 10.0331ZM22.2959 11.642C22.1992 12.2585 21.7135 12.2585 21.2436 12.2585H20.9765L21.1644 11.1072C21.1755 11.0377 21.2371 10.9864 21.3099 10.9864H21.4324C21.7521 10.9864 22.0542 10.9864 22.21 11.1632C22.3031 11.2687 22.3313 11.4254 22.2959 11.642ZM27.3866 11.6222H26.5388C26.4659 11.6222 26.4041 11.6735 26.3932 11.7431L26.3557 11.9732L26.2961 11.8898C26.1124 11.6313 25.7032 11.5449 25.2944 11.5449C24.3569 11.5449 23.5565 12.2335 23.4005 13.1993C23.3197 13.6811 23.4344 14.1417 23.7163 14.463C23.9753 14.7584 24.3448 14.8815 24.7848 14.8815C25.5401 14.8815 25.959 14.4105 25.959 14.4105L25.9212 14.6391C25.907 14.7266 25.9764 14.8049 26.0674 14.8049H26.8312C26.9521 14.8049 27.0552 14.7195 27.0742 14.6032L27.5329 11.7875C27.547 11.7009 27.4776 11.6222 27.3866 11.6222ZM26.2041 13.2234C26.1227 13.6934 25.7376 14.0089 25.2469 14.0089C25.0011 14.0089 24.8038 13.9323 24.6773 13.7871C24.5519 13.6429 24.5048 13.4376 24.5442 13.2091C24.6211 12.7431 25.0117 12.4174 25.4948 12.4174C25.7358 12.4174 25.9315 12.4949 26.0606 12.6414C26.1903 12.7893 26.2417 12.9958 26.2041 13.2234Z" fill="#179BD7"/>
<rect x="46.6619" y="0.95166" width="36.1655" height="24.0483" rx="4" fill="white"/>
<path fill-rule="evenodd" clip-rule="evenodd" d="M63.7425 16.7415V13.7144H65.3536C66.0138 13.7144 66.571 13.4999 67.0252 13.0769L67.1343 12.9696C67.964 12.0937 67.9095 10.7291 67.0252 9.91874C66.5831 9.48971 65.9774 9.25732 65.3536 9.26924H62.7673V16.7415H63.7425ZM63.7426 12.7971V10.1869H65.3782C65.7295 10.1869 66.0627 10.318 66.3111 10.5563C66.8381 11.0569 66.8502 11.8913 66.3413 12.4097C66.093 12.666 65.7416 12.809 65.3782 12.7971H63.7426ZM71.6829 12.0281C71.265 11.6527 70.6956 11.4621 69.9749 11.4621C69.0482 11.4621 68.3517 11.7957 67.8914 12.4572L68.7514 12.9875C69.0664 12.5346 69.4964 12.3082 70.0415 12.3082C70.3868 12.3082 70.7199 12.4333 70.9803 12.6598C71.2347 12.8743 71.3801 13.1841 71.3801 13.5119V13.7323C71.0045 13.5297 70.5321 13.4225 69.9507 13.4225C69.2723 13.4225 68.7272 13.5774 68.3214 13.8932C67.9156 14.209 67.7097 14.6261 67.7097 15.1565C67.6976 15.6391 67.9095 16.0979 68.2851 16.4078C68.6666 16.7415 69.1512 16.9083 69.7205 16.9083C70.3928 16.9083 70.9258 16.6164 71.3316 16.0324H71.374V16.7415H72.3067V13.5893C72.3067 12.9279 72.1008 12.4035 71.6829 12.0281ZM69.0363 15.8002C68.8364 15.6572 68.7152 15.4247 68.7152 15.1744C68.7152 14.8944 68.8485 14.6619 69.109 14.4772C69.3755 14.2925 69.7087 14.1971 70.1024 14.1971C70.6476 14.1911 71.0717 14.3103 71.3745 14.5487C71.3745 14.954 71.211 15.3056 70.8899 15.6035C70.5992 15.8896 70.2054 16.0505 69.7935 16.0505C69.5209 16.0564 69.2543 15.9671 69.0363 15.8002ZM74.4024 18.9879L77.6609 11.6289H76.601L75.0929 15.2995H75.0747L73.5302 11.6289H72.4703L74.6083 16.4138L73.397 18.9879H74.4024Z" fill="#3c4043"/>
<path d="M60.3759 13.059C60.3759 12.767 60.3517 12.475 60.3032 12.189H56.1907V13.8397H58.5468C58.4498 14.3701 58.1349 14.8469 57.6746 15.1448V16.2175H59.0797C59.9035 15.4726 60.3759 14.3701 60.3759 13.059Z" fill="#4285F4"/>
<path d="M56.1909 17.2543C57.3659 17.2543 58.3592 16.8729 59.08 16.2173L57.6748 15.1446C57.2811 15.4068 56.7784 15.5558 56.1909 15.5558C55.0522 15.5558 54.0892 14.799 53.744 13.7859H52.2964V14.8943C53.0353 16.3425 54.5434 17.2543 56.1909 17.2543Z" fill="#34A853"/>
<path d="M53.7441 13.7862C53.5624 13.2558 53.5624 12.6778 53.7441 12.1414V11.0389H52.2963C51.6724 12.2487 51.6724 13.679 52.2963 14.8887L53.7441 13.7862Z" fill="#FBBC04"/>
<path d="M56.1909 10.3718C56.8147 10.3599 57.4143 10.5923 57.8625 11.0154L59.1102 9.78777C58.3168 9.06072 57.275 8.66144 56.1909 8.67336C54.5434 8.67336 53.0353 9.5911 52.2964 11.0392L53.744 12.1477C54.0892 11.1286 55.0522 10.3718 56.1909 10.3718Z" fill="#EA4335"/>
<rect x="186.565" y="0.95166" width="36.1655" height="24.0483" rx="4" fill="white"/>
<path d="M193.417 19.6838V16.5372H194.414C195.142 16.5372 195.611 16.8022 195.611 17.3505C195.616 17.48 195.586 17.6086 195.523 17.7231C195.46 17.8376 195.367 17.934 195.254 18.0022C195.402 18.0659 195.527 18.1716 195.612 18.3056C195.698 18.4395 195.739 18.5953 195.731 18.7526C195.731 19.3859 195.254 19.6828 194.512 19.6828L193.417 19.6838ZM194.061 17.8465H194.539C194.831 17.8465 194.956 17.7073 194.956 17.451C194.956 17.1764 194.728 17.0865 194.422 17.0865H194.06L194.061 17.8465ZM194.061 19.1364H194.46C194.85 19.1364 195.076 19.0397 195.076 18.7497C195.076 18.4596 194.877 18.3358 194.515 18.3358H194.06L194.061 19.1364ZM196.984 19.7389C196.348 19.7389 196.028 19.4381 196.028 19.033C196.028 18.5882 196.404 18.3271 196.96 18.3223C197.098 18.3246 197.236 18.3366 197.372 18.358V18.2497C197.372 17.9751 197.21 17.8455 196.9 17.8455C196.69 17.8431 196.483 17.8799 196.288 17.9538L196.172 17.4704C196.428 17.38 196.698 17.3345 196.97 17.3359C197.651 17.3359 197.99 17.687 197.99 18.2932V19.5397C197.672 19.6766 197.327 19.7427 196.98 19.7331L196.984 19.7389ZM197.372 19.2312V18.7477C197.264 18.7245 197.154 18.7125 197.043 18.7119C196.83 18.7119 196.664 18.7932 196.664 19.002C196.664 19.1954 196.802 19.2921 197.048 19.2921C197.16 19.2956 197.271 19.2741 197.372 19.2293V19.2312ZM198.444 19.6857V17.5303C198.778 17.402 199.133 17.3364 199.492 17.3369C200.169 17.3369 200.558 17.6609 200.558 18.2584V19.6876H199.918V18.2991C199.918 17.9887 199.769 17.8446 199.487 17.8446C199.347 17.8428 199.208 17.8705 199.079 17.9258V19.6838L198.444 19.6857ZM202.793 17.4694L202.673 17.9596C202.507 17.8902 202.33 17.8521 202.149 17.8475C201.773 17.8475 201.57 18.1037 201.57 18.5244C201.57 18.9875 201.783 19.2254 202.182 19.2254C202.36 19.2206 202.535 19.1808 202.697 19.1084L202.796 19.6074C202.587 19.6979 202.359 19.7425 202.129 19.7379C201.36 19.7379 200.915 19.2747 200.915 18.5418C200.915 17.8088 201.356 17.3321 202.092 17.3321C202.332 17.331 202.569 17.3768 202.79 17.4665L202.793 17.4694ZM204.175 19.7398C203.461 19.7398 203.017 19.2563 203.017 18.535C203.017 17.8136 203.461 17.335 204.175 17.335C204.889 17.335 205.33 17.8185 205.33 18.535C205.33 19.2515 204.894 19.7379 204.175 19.7379V19.7398ZM204.175 19.2273C204.504 19.2273 204.674 18.9624 204.674 18.535C204.674 18.1076 204.502 17.8475 204.175 17.8475C203.848 17.8475 203.67 18.1124 203.67 18.535C203.67 18.9576 203.85 19.2254 204.175 19.2254V19.2273ZM205.7 19.6857V17.5303C206.033 17.402 206.389 17.3364 206.748 17.3369C207.425 17.3369 207.813 17.6609 207.813 18.2584V19.6876H207.173V18.2991C207.173 17.9887 207.025 17.8446 206.743 17.8446C206.602 17.8428 206.463 17.8705 206.335 17.9258V19.6838L205.7 19.6857ZM209.256 19.7398C208.705 19.7398 208.422 19.4497 208.422 18.8541V17.8871H208.107V17.393H208.422V16.894L209.062 16.8621V17.393H209.576V17.8871H209.062V18.8493C209.062 19.1103 209.173 19.236 209.382 19.236C209.464 19.2358 209.547 19.2267 209.627 19.209L209.66 19.7079C209.527 19.7329 209.392 19.7429 209.256 19.7379V19.7398ZM210.87 19.7398C210.235 19.7398 209.915 19.4391 209.915 19.0339C209.915 18.5891 210.291 18.3281 210.846 18.3232C210.985 18.3256 211.123 18.3376 211.259 18.359V18.2507C211.259 17.9761 211.097 17.8465 210.787 17.8465C210.577 17.8441 210.369 17.8808 210.174 17.9548L210.059 17.4713C210.314 17.381 210.584 17.3355 210.856 17.3369C211.537 17.3369 211.876 17.6879 211.876 18.2942V19.5397C211.561 19.6777 211.217 19.7455 210.87 19.7379V19.7398ZM211.259 19.2322V18.7487C211.151 18.7254 211.041 18.7135 210.93 18.7129C210.717 18.7129 210.55 18.7941 210.55 19.003C210.55 19.1964 210.689 19.2931 210.935 19.2931C211.047 19.2963 211.158 19.2744 211.259 19.2293V19.2322ZM214.069 17.4704L213.948 17.9606C213.783 17.8911 213.605 17.8531 213.425 17.8484C213.049 17.8484 212.846 18.1047 212.846 18.5253C212.846 18.9885 213.059 19.2264 213.458 19.2264C213.636 19.2216 213.811 19.1818 213.972 19.1094L214.072 19.6083C213.862 19.6989 213.634 19.7435 213.405 19.7389C212.635 19.7389 212.191 19.2757 212.191 18.5427C212.191 17.8098 212.631 17.3331 213.368 17.3331C213.609 17.3316 213.847 17.3773 214.069 17.4675V17.4704ZM215.475 19.7408C214.923 19.7408 214.64 19.4507 214.64 18.8551V17.8881H214.325V17.394H214.64V16.895L215.28 16.8631V17.394H215.795V17.8881H215.28V18.8502C215.28 19.1113 215.392 19.237 215.6 19.237C215.683 19.2367 215.765 19.2277 215.846 19.2099L215.879 19.7089C215.746 19.7335 215.611 19.7432 215.476 19.7379L215.475 19.7408Z" fill="#1E3764"/>
<path d="M197.879 14.9642C201.264 14.9642 202.956 12.7763 204.648 10.5883H193.417V14.9642H197.879Z" fill="url(#paint0_linear_620_3517)"/>
<path d="M211.417 6.2113C208.032 6.2113 206.34 8.3993 204.648 10.5873H215.879V6.2113H211.417Z" fill="url(#paint1_linear_620_3517)"/>
<defs>
<linearGradient id="paint0_linear_620_3517" x1="195.688" y1="12.9774" x2="203.841" y2="9.85513" gradientUnits="userSpaceOnUse">
<stop stop-color="#005AB9"/>
<stop offset="1" stop-color="#1E3764"/>
</linearGradient>
<linearGradient id="paint1_linear_620_3517" x1="205.328" y1="10.9673" x2="213.994" y2="7.91832" gradientUnits="userSpaceOnUse">
<stop stop-color="#FBA900"/>
<stop offset="1" stop-color="#FFD800"/>
</linearGradient>
</defs>
</svg>
