<svg width="19" height="19" viewBox="0 0 19 19" fill="none" xmlns="http://www.w3.org/2000/svg">
<path d="M8.61968 2.79221H2.69326C2.24418 2.79221 1.81349 2.97023 1.49594 3.28712C1.1784 3.60401 1 4.0338 1 4.48195V16.3101C1 16.7583 1.1784 17.1881 1.49594 17.505C1.81349 17.8219 2.24418 17.9999 2.69326 17.9999H14.5461C14.9952 17.9999 15.4259 17.8219 15.7434 17.505C16.061 17.1881 16.2394 16.7583 16.2394 16.3101V10.396" stroke="#43444D" stroke-width="1.5" stroke-linecap="round" stroke-linejoin="round"/>
<path d="M14.9697 1.52494C15.3065 1.18882 15.7633 1 16.2397 1C16.716 1 17.1728 1.18882 17.5096 1.52494C17.8464 1.86105 18.0356 2.31691 18.0356 2.79224C18.0356 3.26757 17.8464 3.72344 17.5096 4.05955L9.4666 12.0858L6.08008 12.9307L6.92671 9.55121L14.9697 1.52494Z" stroke="#43444D" stroke-width="1.5" stroke-linecap="round" stroke-linejoin="round"/>
</svg>
