<svg width="21" height="19" viewBox="0 0 21 19" fill="none" xmlns="http://www.w3.org/2000/svg">
<path d="M7.98551 18C8.46776 18 8.85871 17.6376 8.85871 17.1905C8.85871 16.7434 8.46776 16.381 7.98551 16.381C7.50325 16.381 7.1123 16.7434 7.1123 17.1905C7.1123 17.6376 7.50325 18 7.98551 18Z" stroke="#666666" stroke-width="1.5" stroke-linecap="round" stroke-linejoin="round"/>
<path d="M17.592 18C18.0742 18 18.4652 17.6376 18.4652 17.1905C18.4652 16.7434 18.0742 16.381 17.592 16.381C17.1097 16.381 16.7188 16.7434 16.7188 17.1905C16.7188 17.6376 17.1097 18 17.592 18Z" stroke="#666666" stroke-width="1.5" stroke-linecap="round" stroke-linejoin="round"/>
<path d="M1 1H4.49281L6.83299 11.8395C6.91284 12.2122 7.13155 12.547 7.45082 12.7853C7.7701 13.0236 8.1696 13.1501 8.5794 13.1429H17.0669C17.4767 13.1501 17.8762 13.0236 18.1955 12.7853C18.5148 12.547 18.7335 12.2122 18.8133 11.8395L20.2105 5.04762H5.36601" stroke="#43444D" stroke-width="1.5" stroke-linecap="round" stroke-linejoin="round"/>
</svg>
