<svg width="42" height="40" viewBox="0 0 42 40" fill="none" xmlns="http://www.w3.org/2000/svg">
<path d="M20.1276 0.55686C20.5095 -0.124697 21.4905 -0.124697 21.8724 0.556861L25.7477 7.4728C25.9749 7.87826 26.4515 8.07374 26.8979 7.94459L34.7593 5.67058C35.527 5.44852 36.2321 6.17211 35.9903 6.93378L33.6549 14.29C33.507 14.7561 33.7178 15.2609 34.1533 15.4832L41.2556 19.1094C41.9826 19.4806 41.9826 20.5194 41.2556 20.8906L34.1533 24.5168C33.7178 24.7391 33.507 25.2439 33.6549 25.71L35.9903 33.0662C36.2321 33.8279 35.527 34.5515 34.7593 34.3294L26.8979 32.0554C26.4515 31.9263 25.9749 32.1217 25.7477 32.5272L21.8724 39.4431C21.4905 40.1247 20.5095 40.1247 20.1276 39.4431L16.2523 32.5272C16.0251 32.1217 15.5485 31.9263 15.1021 32.0554L7.2407 34.3294C6.47303 34.5515 5.7679 33.8279 6.00971 33.0662L8.34508 25.71C8.49305 25.2439 8.28222 24.7391 7.84668 24.5168L0.744418 20.8906C0.0173823 20.5194 0.0173821 19.4806 0.744418 19.1094L7.84668 15.4832C8.28222 15.2609 8.49305 14.7561 8.34508 14.29L6.00971 6.93378C5.7679 6.17211 6.47303 5.44852 7.2407 5.67058L15.1021 7.94459C15.5485 8.07374 16.0251 7.87826 16.2523 7.4728L20.1276 0.55686Z" fill="url(#paint0_linear_1137_406)"/>
<defs>
<linearGradient id="paint0_linear_1137_406" x1="21" y1="-1" x2="21" y2="41" gradientUnits="userSpaceOnUse">
<stop stop-color="#FFA500"/>
<stop offset="1" stop-color="#FF0000" stop-opacity="0.8"/>
</linearGradient>
</defs>
</svg>
