<svg width="24" height="21" viewBox="0 0 24 21" fill="none" xmlns="http://www.w3.org/2000/svg">
<path d="M18 6.99615C19.6569 6.99615 21 5.85281 21 4.44242C21 3.03203 19.6569 1.88869 18 1.88869C16.3431 1.88869 15 3.03203 15 4.44242C15 5.85281 16.3431 6.99615 18 6.99615Z" stroke="#7E7F8D" stroke-width="1.5" stroke-linecap="round" stroke-linejoin="round"/>
<path d="M6 12.9549C7.65685 12.9549 9 11.8115 9 10.4011C9 8.99074 7.65685 7.8474 6 7.8474C4.34315 7.8474 3 8.99074 3 10.4011C3 11.8115 4.34315 12.9549 6 12.9549Z" stroke="#7E7F8D" stroke-width="1.5" stroke-linecap="round" stroke-linejoin="round"/>
<path d="M18 18.9136C19.6569 18.9136 21 17.7702 21 16.3598C21 14.9495 19.6569 13.8061 18 13.8061C16.3431 13.8061 15 14.9495 15 16.3598C15 17.7702 16.3431 18.9136 18 18.9136Z" stroke="#7E7F8D" stroke-width="1.5" stroke-linecap="round" stroke-linejoin="round"/>
<path d="M8.59003 11.6865L15.42 15.0745" stroke="#7E7F8D" stroke-width="1.5" stroke-linecap="round" stroke-linejoin="round"/>
<path d="M15.41 5.7278L8.59003 9.11575" stroke="#7E7F8D" stroke-width="1.5" stroke-linecap="round" stroke-linejoin="round"/>
</svg>
